<svg xmlns="http://www.w3.org/2000/svg" viewBox="0 0 1196.45 226.93"><defs><style>.cls-1{fill:#1a2433;}.cls-2{fill:#5fc9e7;}</style></defs><title>taylorfedt</title><g id="Layer_1" data-name="Layer 1"><path class="cls-1" d="M52.9,19.77V54.38H86.52v26H52.65V133c0,11.62,6.43,17.3,15.82,17.3a34.44,34.44,0,0,0,14.59-3.71l8.4,25.71a67.34,67.34,0,0,1-25,5.19C40,178.48,22.74,163.4,22.74,133V80.34H0v-26H22.74V23Z"/><path class="cls-1" d="M205.67,54.14h28.92V176H206.16l-1.48-17.8c-6.92,14.34-26,21.26-39.55,21.51-36.09.25-62.79-22-62.79-64.77,0-42,27.93-64,63.53-63.78,16.31,0,31.89,7.66,38.81,19.78ZM132.5,114.95c0,23.24,16.07,37.08,36.09,37.08,47.46,0,47.46-73.91,0-73.91C148.56,78.11,132.5,91.71,132.5,114.95Z"/><path class="cls-1" d="M377.72,54.14,303.32,226.93H270.19L292.93,174,244.24,54.14h35.1l18.54,52.65,11.62,34.36,12.61-33.62,22.25-53.39Z"/><path class="cls-1" d="M423.45,3.21V176H393.54V3.21Z"/><path class="cls-1" d="M571,115.19c0,35.1-24,63.53-63.53,63.53s-63.28-28.43-63.28-63.53c0-34.85,24.22-63.53,63-63.53S571,80.34,571,115.19Zm-96.65,0c0,18.54,11.12,35.84,33.12,35.84s33.12-17.3,33.12-35.84c0-18.29-12.85-36.09-33.12-36.09C485.75,79.1,474.38,96.9,474.38,115.19Z"/><path class="cls-1" d="M619.73,54.14,622,68.23c9.39-15.08,22-17.31,34.36-17.31,12.61,0,24.72,4.94,31.39,11.62l-13.6,26.2c-6.18-5.19-11.86-7.91-21.75-7.91-15.82,0-30.4,8.41-30.4,30.9V176H591.8V54.14Z"/><path class="cls-2" d="M728.75,176V82.32H706V55.87h22.74V47.71c0-32.63,22-47.71,46.47-47.71C785.85,0,797,3.46,806.86,9.89L795.74,32.38C789.31,28.18,783.38,26,777.2,26c-10.38,0-18.29,6.92-18.29,21.75v8.16h35.84V82.32H758.91V176Z"/><path class="cls-2" d="M844.19,125.82c2,15.08,15.08,26,36.34,26,11.12,0,25.71-4.2,32.63-11.37l19.28,19c-12.85,13.35-33.87,19.78-52.4,19.78-42,0-67-26-67-65,0-37.08,25.21-63.78,64.77-63.78,40.79,0,66.25,25.21,61.55,75.39Zm66.25-25c-2-15.82-14.34-23.73-31.64-23.73-16.31,0-29.66,7.91-34.11,23.73Z"/><path class="cls-2" d="M1089.17,3.21V176H1061l-2-16.81c-9.39,14.59-24.47,19.53-39.3,19.53-35.84,0-62.79-23.73-62.79-63.78,0-42,26.45-63.78,62-63.78,12.85,0,32.88,6.92,40,19.53V3.21ZM987.08,114.95c0,21.26,15.32,35.84,34.61,35.84,19,0,35.35-13.84,35.35-35.84,0-21.26-16.31-35.59-35.35-35.59C1002.4,79.35,987.08,92.95,987.08,114.95Z"/><path class="cls-2" d="M1157.89,19.77V54.38h33.62v26h-33.87V133c0,11.62,6.43,17.3,15.82,17.3a34.44,34.44,0,0,0,14.59-3.71l8.4,25.71a67.34,67.34,0,0,1-25,5.19c-26.45,1-43.76-14.09-43.76-44.49V80.34H1105v-26h22.74V23Z"/></g></svg>